<svg width="20" height="16" viewBox="0 0 20 16" fill="none" xmlns="http://www.w3.org/2000/svg">
<path d="M9.73484 4.03478L3.3336 9.30697V14.9972C3.3336 15.1445 3.39212 15.2858 3.4963 15.39C3.60048 15.4942 3.74178 15.5527 3.88911 15.5527L7.77978 15.5426C7.92663 15.5419 8.06722 15.483 8.17079 15.3789C8.27437 15.2748 8.33252 15.134 8.33252 14.9871V11.6641C8.33252 11.5168 8.39104 11.3755 8.49522 11.2713C8.5994 11.1671 8.7407 11.1086 8.88803 11.1086H11.1101C11.2574 11.1086 11.3987 11.1671 11.5029 11.2713C11.6071 11.3755 11.6656 11.5168 11.6656 11.6641V14.9847C11.6654 15.0578 11.6796 15.1302 11.7074 15.1978C11.7352 15.2654 11.7761 15.3268 11.8277 15.3786C11.8793 15.4304 11.9406 15.4715 12.0081 15.4995C12.0756 15.5275 12.148 15.5419 12.2211 15.5419L16.1104 15.5527C16.2577 15.5527 16.399 15.4942 16.5032 15.39C16.6074 15.2858 16.6659 15.1445 16.6659 14.9972V9.30315L10.266 4.03478C10.1908 3.97413 10.0971 3.94106 10.0004 3.94106C9.90381 3.94106 9.81008 3.97413 9.73484 4.03478ZM19.8462 7.6182L16.9437 5.22566V0.416637C16.9437 0.306138 16.8998 0.200165 16.8216 0.12203C16.7435 0.0438956 16.6375 0 16.527 0H14.5827C14.4722 0 14.3663 0.0438956 14.2881 0.12203C14.21 0.200165 14.1661 0.306138 14.1661 0.416637V2.93763L11.0577 0.380181C10.7593 0.134705 10.385 0.000490709 9.99871 0.000490709C9.61239 0.000490709 9.23807 0.134705 8.93976 0.380181L0.151203 7.6182C0.109015 7.65307 0.0741102 7.69591 0.0484844 7.74428C0.0228586 7.79264 0.00701361 7.84558 0.00185477 7.90007C-0.00330407 7.95456 0.00232436 8.00953 0.0184184 8.06185C0.0345125 8.11416 0.0607569 8.16279 0.0956519 8.20496L0.981 9.28127C1.0158 9.32359 1.0586 9.35863 1.10696 9.38438C1.15532 9.41013 1.20828 9.42609 1.26282 9.43135C1.31735 9.4366 1.37239 9.43105 1.42477 9.41501C1.47716 9.39897 1.52587 9.37276 1.56811 9.33787L9.73484 2.61127C9.81008 2.55062 9.90381 2.51755 10.0004 2.51755C10.0971 2.51755 10.1908 2.55062 10.266 2.61127L18.4331 9.33787C18.4753 9.37276 18.5239 9.39901 18.5762 9.4151C18.6286 9.4312 18.6835 9.43682 18.738 9.43166C18.7925 9.42651 18.8455 9.41066 18.8938 9.38503C18.9422 9.35941 18.985 9.3245 19.0199 9.28232L19.9052 8.206C19.9401 8.16359 19.9662 8.11471 19.9821 8.06217C19.998 8.00962 20.0034 7.95445 19.9979 7.89983C19.9924 7.84521 19.9762 7.79221 19.9502 7.74388C19.9241 7.69554 19.8888 7.65283 19.8462 7.6182Z" fill="#383838"/>
</svg>
