<svg width="20" height="20" viewBox="0 0 20 20" fill="none" xmlns="http://www.w3.org/2000/svg">
<path d="M1.25 15.0002C1.25108 15.525 1.36298 16.0437 1.57839 16.5222C1.7938 17.0008 2.10786 17.4284 2.5 17.7772V19.3752C2.5 19.541 2.56585 19.7 2.68306 19.8172C2.80027 19.9344 2.95924 20.0002 3.125 20.0002H4.375C4.54076 20.0002 4.69973 19.9344 4.81694 19.8172C4.93415 19.7 5 19.541 5 19.3752V18.7502H15V19.3752C15 19.541 15.0658 19.7 15.1831 19.8172C15.3003 19.9344 15.4592 20.0002 15.625 20.0002H16.875C17.0408 20.0002 17.1997 19.9344 17.3169 19.8172C17.4342 19.7 17.5 19.541 17.5 19.3752V17.7772C17.8921 17.4284 18.2062 17.0008 18.4216 16.5222C18.637 16.0437 18.7489 15.525 18.75 15.0002V13.1252H1.25V15.0002ZM19.375 10.0002H3.125V2.7053C3.12536 2.54127 3.17428 2.38101 3.26561 2.24475C3.35693 2.10848 3.48657 2.00232 3.63816 1.93964C3.78975 1.87697 3.95651 1.86059 4.1174 1.89257C4.27828 1.92456 4.4261 2.00347 4.54219 2.11936L5.29492 2.87171C4.78203 4.0389 4.99766 5.18069 5.63164 5.98616L5.625 5.9928C5.50824 6.10995 5.44267 6.26861 5.44267 6.43401C5.44267 6.59942 5.50824 6.75807 5.625 6.87522L6.0668 7.31702C6.12484 7.37507 6.19374 7.42112 6.26958 7.45254C6.34542 7.48396 6.4267 7.50013 6.50879 7.50013C6.59088 7.50013 6.67216 7.48396 6.748 7.45254C6.82384 7.42112 6.89274 7.37507 6.95078 7.31702L11.0668 3.20101C11.1248 3.14297 11.1709 3.07406 11.2023 2.99822C11.2337 2.92239 11.2499 2.8411 11.2499 2.75901C11.2499 2.67693 11.2337 2.59564 11.2023 2.5198C11.1709 2.44397 11.1248 2.37506 11.0668 2.31702L10.625 1.87522C10.5078 1.7581 10.3489 1.69231 10.1832 1.69231C10.0175 1.69231 9.8586 1.7581 9.74141 1.87522L9.73477 1.88186C8.9293 1.24788 7.78828 1.03226 6.62031 1.54515L5.86797 0.792412C5.48966 0.414055 5.00764 0.156385 4.48287 0.0519907C3.95811 -0.0524038 3.41418 0.00116618 2.91986 0.205926C2.42554 0.410685 2.00305 0.757436 1.70582 1.20232C1.40858 1.64721 1.24996 2.17026 1.25 2.7053V10.0002H0.625C0.45924 10.0002 0.300269 10.0661 0.183058 10.1833C0.065848 10.3005 0 10.4595 0 10.6252L0 11.2502C0 11.416 0.065848 11.575 0.183058 11.6922C0.300269 11.8094 0.45924 11.8752 0.625 11.8752H19.375C19.5408 11.8752 19.6997 11.8094 19.8169 11.6922C19.9342 11.575 20 11.416 20 11.2502V10.6252C20 10.4595 19.9342 10.3005 19.8169 10.1833C19.6997 10.0661 19.5408 10.0002 19.375 10.0002Z" fill="#383838"/>
</svg>
